<mxfile host="app.diagrams.net" modified="2024-07-06T06:44:40.840Z" agent="Mozilla/5.0 (Macintosh; Intel Mac OS X 10_15_7) AppleWebKit/537.36 (KHTML, like Gecko) Chrome/126.0.0.0 Safari/537.36" etag="usaQJRXnbGPCXO3Tc4pO" version="24.6.4" type="github">
  <diagram name="Page-1" id="uxU2Fy0NWyNEv65CuVLe">
    <mxGraphModel dx="909" dy="553" grid="1" gridSize="10" guides="1" tooltips="1" connect="1" arrows="1" fold="1" page="1" pageScale="1" pageWidth="827" pageHeight="1169" math="0" shadow="0">
      <root>
        <mxCell id="0" />
        <mxCell id="1" parent="0" />
        <mxCell id="hDnXBolNgCVI4bxDkT7c-1" value="12FF" style="rounded=0;whiteSpace=wrap;html=1;" vertex="1" parent="1">
          <mxGeometry x="420" y="80" width="180" height="220" as="geometry" />
        </mxCell>
        <mxCell id="hDnXBolNgCVI4bxDkT7c-2" value="Adder" style="rounded=0;whiteSpace=wrap;html=1;" vertex="1" parent="1">
          <mxGeometry x="230" y="110" width="120" height="160" as="geometry" />
        </mxCell>
        <mxCell id="hDnXBolNgCVI4bxDkT7c-3" value="" style="endArrow=classic;html=1;rounded=0;entryX=0;entryY=0.75;entryDx=0;entryDy=0;exitX=0.488;exitY=1.033;exitDx=0;exitDy=0;exitPerimeter=0;" edge="1" parent="1" target="hDnXBolNgCVI4bxDkT7c-2" source="hDnXBolNgCVI4bxDkT7c-9">
          <mxGeometry width="50" height="50" relative="1" as="geometry">
            <mxPoint x="650" y="400" as="sourcePoint" />
            <mxPoint x="440" y="280" as="targetPoint" />
            <Array as="points">
              <mxPoint x="650" y="400" />
              <mxPoint x="100" y="400" />
              <mxPoint x="100" y="230" />
            </Array>
          </mxGeometry>
        </mxCell>
        <mxCell id="hDnXBolNgCVI4bxDkT7c-4" value="" style="endArrow=classic;html=1;rounded=0;" edge="1" parent="1">
          <mxGeometry width="50" height="50" relative="1" as="geometry">
            <mxPoint x="351" y="185" as="sourcePoint" />
            <mxPoint x="420" y="185" as="targetPoint" />
          </mxGeometry>
        </mxCell>
        <mxCell id="hDnXBolNgCVI4bxDkT7c-5" value="" style="endArrow=classic;html=1;rounded=0;entryX=0;entryY=0.75;entryDx=0;entryDy=0;" edge="1" parent="1">
          <mxGeometry width="50" height="50" relative="1" as="geometry">
            <mxPoint x="140" y="150" as="sourcePoint" />
            <mxPoint x="230" y="150" as="targetPoint" />
          </mxGeometry>
        </mxCell>
        <mxCell id="hDnXBolNgCVI4bxDkT7c-6" value="MUX" style="shape=trapezoid;perimeter=trapezoidPerimeter;whiteSpace=wrap;html=1;fixedSize=1;rotation=90;" vertex="1" parent="1">
          <mxGeometry x="50" y="120" width="120" height="60" as="geometry" />
        </mxCell>
        <mxCell id="hDnXBolNgCVI4bxDkT7c-8" value="" style="endArrow=classic;html=1;rounded=0;exitX=1;exitY=0.5;exitDx=0;exitDy=0;" edge="1" parent="1" source="hDnXBolNgCVI4bxDkT7c-1">
          <mxGeometry width="50" height="50" relative="1" as="geometry">
            <mxPoint x="430" y="340" as="sourcePoint" />
            <mxPoint x="700" y="190" as="targetPoint" />
          </mxGeometry>
        </mxCell>
        <mxCell id="hDnXBolNgCVI4bxDkT7c-9" value="&lt;font style=&quot;font-size: 14px;&quot;&gt;[11:0]Out&lt;/font&gt;" style="text;html=1;align=center;verticalAlign=middle;resizable=0;points=[];autosize=1;strokeColor=none;fillColor=none;" vertex="1" parent="1">
          <mxGeometry x="610" y="160" width="80" height="30" as="geometry" />
        </mxCell>
        <mxCell id="hDnXBolNgCVI4bxDkT7c-10" value="" style="endArrow=classic;html=1;rounded=0;entryX=0;entryY=0.25;entryDx=0;entryDy=0;" edge="1" parent="1">
          <mxGeometry width="50" height="50" relative="1" as="geometry">
            <mxPoint x="112" y="30" as="sourcePoint" />
            <mxPoint x="111.53846153846143" y="103.84615384615381" as="targetPoint" />
          </mxGeometry>
        </mxCell>
        <mxCell id="hDnXBolNgCVI4bxDkT7c-11" value="&lt;font style=&quot;font-size: 14px;&quot;&gt;[1:0]Y&lt;/font&gt;" style="text;html=1;align=center;verticalAlign=middle;resizable=0;points=[];autosize=1;strokeColor=none;fillColor=none;" vertex="1" parent="1">
          <mxGeometry x="110" y="45" width="60" height="30" as="geometry" />
        </mxCell>
        <mxCell id="hDnXBolNgCVI4bxDkT7c-12" value="" style="endArrow=classic;html=1;rounded=0;entryX=0.25;entryY=1;entryDx=0;entryDy=0;" edge="1" parent="1" target="hDnXBolNgCVI4bxDkT7c-6">
          <mxGeometry width="50" height="50" relative="1" as="geometry">
            <mxPoint x="10" y="120" as="sourcePoint" />
            <mxPoint x="350" y="110" as="targetPoint" />
          </mxGeometry>
        </mxCell>
        <mxCell id="hDnXBolNgCVI4bxDkT7c-13" value="" style="endArrow=classic;html=1;rounded=0;entryX=0.25;entryY=1;entryDx=0;entryDy=0;" edge="1" parent="1">
          <mxGeometry width="50" height="50" relative="1" as="geometry">
            <mxPoint x="10" y="144.47" as="sourcePoint" />
            <mxPoint x="80" y="144.47" as="targetPoint" />
          </mxGeometry>
        </mxCell>
        <mxCell id="hDnXBolNgCVI4bxDkT7c-14" value="" style="endArrow=classic;html=1;rounded=0;entryX=0.25;entryY=1;entryDx=0;entryDy=0;" edge="1" parent="1">
          <mxGeometry width="50" height="50" relative="1" as="geometry">
            <mxPoint x="10" y="170" as="sourcePoint" />
            <mxPoint x="80" y="170" as="targetPoint" />
          </mxGeometry>
        </mxCell>
        <mxCell id="hDnXBolNgCVI4bxDkT7c-15" value="" style="endArrow=classic;html=1;rounded=0;entryX=0.25;entryY=1;entryDx=0;entryDy=0;" edge="1" parent="1">
          <mxGeometry width="50" height="50" relative="1" as="geometry">
            <mxPoint x="10" y="190" as="sourcePoint" />
            <mxPoint x="80" y="190" as="targetPoint" />
          </mxGeometry>
        </mxCell>
        <mxCell id="hDnXBolNgCVI4bxDkT7c-16" value="0" style="text;html=1;align=center;verticalAlign=middle;resizable=0;points=[];autosize=1;strokeColor=none;fillColor=none;" vertex="1" parent="1">
          <mxGeometry x="18" y="90" width="30" height="30" as="geometry" />
        </mxCell>
        <mxCell id="hDnXBolNgCVI4bxDkT7c-17" value="&lt;span style=&quot;color: rgb(0, 0, 0); font-family: Helvetica; font-size: 12px; font-style: normal; font-variant-ligatures: normal; font-variant-caps: normal; font-weight: 400; letter-spacing: normal; orphans: 2; text-align: center; text-indent: 0px; text-transform: none; widows: 2; word-spacing: 0px; -webkit-text-stroke-width: 0px; white-space: nowrap; background-color: rgb(251, 251, 251); text-decoration-thickness: initial; text-decoration-style: initial; text-decoration-color: initial; display: inline !important; float: none;&quot;&gt;1&lt;/span&gt;" style="text;whiteSpace=wrap;html=1;" vertex="1" parent="1">
          <mxGeometry x="28" y="120" width="50" height="40" as="geometry" />
        </mxCell>
        <mxCell id="hDnXBolNgCVI4bxDkT7c-18" value="&lt;span style=&quot;color: rgb(0, 0, 0); font-family: Helvetica; font-size: 12px; font-style: normal; font-variant-ligatures: normal; font-variant-caps: normal; font-weight: 400; letter-spacing: normal; orphans: 2; text-align: center; text-indent: 0px; text-transform: none; widows: 2; word-spacing: 0px; -webkit-text-stroke-width: 0px; white-space: nowrap; background-color: rgb(251, 251, 251); text-decoration-thickness: initial; text-decoration-style: initial; text-decoration-color: initial; display: inline !important; float: none;&quot;&gt;16&lt;/span&gt;" style="text;whiteSpace=wrap;html=1;" vertex="1" parent="1">
          <mxGeometry x="26" y="144" width="50" height="40" as="geometry" />
        </mxCell>
        <mxCell id="hDnXBolNgCVI4bxDkT7c-19" value="&lt;span style=&quot;color: rgb(0, 0, 0); font-family: Helvetica; font-size: 12px; font-style: normal; font-variant-ligatures: normal; font-variant-caps: normal; font-weight: 400; letter-spacing: normal; orphans: 2; text-align: center; text-indent: 0px; text-transform: none; widows: 2; word-spacing: 0px; -webkit-text-stroke-width: 0px; white-space: nowrap; background-color: rgb(251, 251, 251); text-decoration-thickness: initial; text-decoration-style: initial; text-decoration-color: initial; display: inline !important; float: none;&quot;&gt;1290&lt;/span&gt;" style="text;whiteSpace=wrap;html=1;" vertex="1" parent="1">
          <mxGeometry x="21" y="168" width="50" height="40" as="geometry" />
        </mxCell>
      </root>
    </mxGraphModel>
  </diagram>
</mxfile>
